<svg width="97" height="70" viewBox="0 0 97 70" fill="none" xmlns="http://www.w3.org/2000/svg">
<path d="M3.19523 55.588C2.72857 55.5693 2.3739 55.4107 2.13123 55.112C1.90723 54.8133 1.79523 54.4213 1.79523 53.936V50.912C1.79523 50.4267 1.91657 50.044 2.15923 49.764C2.42057 49.4653 2.7939 49.3067 3.27923 49.288C4.4179 49.232 5.4539 49.092 6.38723 48.868C7.32057 48.644 8.1979 48.168 9.01923 47.44C9.84057 46.712 10.4192 45.648 10.7552 44.248C9.46723 45.312 7.4419 45.9933 4.67923 46.292C4.15657 46.3293 3.75523 46.2173 3.47523 45.956C3.19523 45.6947 3.05523 45.3027 3.05523 44.78V42.12C3.05523 41.616 3.1859 41.2333 3.44723 40.972C3.72723 40.692 4.11923 40.552 4.62323 40.552H11.6232C12.1086 40.552 12.5286 40.7667 12.8832 41.196C13.2566 41.6067 13.5272 42.232 13.6952 43.072C13.8819 43.9867 13.9752 44.8827 13.9752 45.76C13.9752 48 13.4059 49.876 12.2672 51.388C11.1472 52.9 9.74723 54.0013 8.06723 54.692C6.4059 55.3827 4.7819 55.6813 3.19523 55.588ZM8.06723 65.528C7.56323 65.528 7.17123 65.388 6.89123 65.108C6.6299 64.8467 6.49923 64.464 6.49923 63.96V57.184C6.49923 56.68 6.6299 56.2973 6.89123 56.036C7.17123 55.756 7.56323 55.616 8.06723 55.616H19.5192C20.0232 55.616 20.4059 55.7093 20.6672 55.896C20.9472 56.0827 21.0872 56.3533 21.0872 56.708C21.0872 57.0627 20.9472 57.3333 20.6672 57.52C20.4059 57.7067 20.0232 57.8 19.5192 57.8H12.4072V58.5H19.5192C20.0232 58.5 20.4059 58.5653 20.6672 58.696C20.9472 58.808 21.0872 58.9667 21.0872 59.172C21.0872 59.3773 20.9472 59.5453 20.6672 59.676C20.4059 59.788 20.0232 59.844 19.5192 59.844H12.4072V60.544H20.2472C20.7512 60.544 21.1339 60.684 21.3952 60.964C21.6752 61.2253 21.8152 61.608 21.8152 62.112V63.96C21.8152 64.464 21.6752 64.8467 21.3952 65.108C21.1339 65.388 20.7512 65.528 20.2472 65.528H8.06723ZM16.7752 54.468C16.2712 54.468 15.8792 54.3373 15.5992 54.076C15.3379 53.796 15.2072 53.404 15.2072 52.9V41.644C15.2072 41.14 15.3379 40.7573 15.5992 40.496C15.8792 40.216 16.2712 40.076 16.7752 40.076H19.5192C20.0232 40.076 20.4059 40.216 20.6672 40.496C20.9472 40.7573 21.0872 41.14 21.0872 41.644V44.78H23.0472C23.5512 44.78 23.9339 44.92 24.1952 45.2C24.4752 45.4613 24.6152 45.844 24.6152 46.348V50.072C24.6152 50.52 24.5032 50.8933 24.2792 51.192C24.0739 51.472 23.7846 51.612 23.4112 51.612C23.3179 51.612 23.1779 51.5933 22.9912 51.556C21.7406 51.2013 21.1059 50.1373 21.0872 48.364V52.9C21.0872 53.404 20.9472 53.796 20.6672 54.076C20.4059 54.3373 20.0232 54.468 19.5192 54.468H16.7752ZM41.7941 41.644C41.7941 41.14 41.9248 40.7573 42.1861 40.496C42.4661 40.216 42.8581 40.076 43.3621 40.076H46.1341C46.6381 40.076 47.0208 40.216 47.2821 40.496C47.5621 40.7573 47.7021 41.14 47.7021 41.644V63.96C47.7021 64.464 47.5621 64.8467 47.2821 65.108C47.0208 65.388 46.6381 65.528 46.1341 65.528H43.3621C42.8581 65.528 42.4661 65.388 42.1861 65.108C41.9248 64.8467 41.7941 64.464 41.7941 63.96V41.644ZM26.8421 51.5C26.8421 49.54 27.1408 47.888 27.7381 46.544C28.3541 45.2 29.1848 44.2013 30.2301 43.548C31.2754 42.876 32.4514 42.54 33.7581 42.54C35.0648 42.54 36.2408 42.876 37.2861 43.548C38.3314 44.2013 39.1528 45.2 39.7501 46.544C40.3474 47.888 40.6461 49.54 40.6461 51.5C40.6461 53.46 40.3474 55.112 39.7501 56.456C39.1528 57.8 38.3314 58.808 37.2861 59.48C36.2408 60.1333 35.0648 60.46 33.7581 60.46C32.4514 60.46 31.2754 60.1333 30.2301 59.48C29.1848 58.808 28.3541 57.8 27.7381 56.456C27.1408 55.112 26.8421 53.46 26.8421 51.5ZM33.1421 51.5C33.1421 52.7693 33.1981 53.74 33.3101 54.412C33.4221 55.0653 33.5714 55.392 33.7581 55.392C33.9261 55.392 34.0661 55.056 34.1781 54.384C34.2901 53.712 34.3461 52.7507 34.3461 51.5C34.3461 50.2493 34.2901 49.288 34.1781 48.616C34.0661 47.944 33.9261 47.608 33.7581 47.608C33.5714 47.608 33.4221 47.944 33.3101 48.616C33.1981 49.2693 33.1421 50.2307 33.1421 51.5ZM63.6687 41.644C63.6687 41.14 63.7993 40.7573 64.0607 40.496C64.3407 40.216 64.7327 40.076 65.2367 40.076H67.9807C68.4847 40.076 68.8673 40.216 69.1287 40.496C69.4087 40.7573 69.5487 41.14 69.5487 41.644V44.78H71.5367C72.0407 44.78 72.4233 44.92 72.6847 45.2C72.9647 45.4613 73.1047 45.844 73.1047 46.348V50.072C73.1047 50.52 72.9927 50.8933 72.7687 51.192C72.5633 51.472 72.274 51.612 71.9007 51.612C71.8073 51.612 71.6673 51.5933 71.4807 51.556C70.2113 51.2013 69.5673 50.1373 69.5487 48.364V63.96C69.5487 64.464 69.4087 64.8467 69.1287 65.108C68.8673 65.388 68.4847 65.528 67.9807 65.528H65.2367C64.7327 65.528 64.3407 65.388 64.0607 65.108C63.7993 64.8467 63.6687 64.464 63.6687 63.96V41.644ZM52.7487 60.376C52.674 60.3947 52.562 60.404 52.4127 60.404C51.9833 60.404 51.6473 60.2827 51.4047 60.04C51.1807 59.7787 51.0687 59.4147 51.0687 58.948V43.996C51.0687 43.492 51.1993 43.1093 51.4607 42.848C51.7407 42.568 52.1327 42.428 52.6367 42.428H59.2727C59.7767 42.428 60.1593 42.568 60.4207 42.848C60.7007 43.1093 60.8407 43.492 60.8407 43.996V46.124C60.8407 46.628 60.7007 47.02 60.4207 47.3C60.1593 47.5613 59.7767 47.692 59.2727 47.692H56.9767V49.008H59.2727C59.7767 49.008 60.1593 49.1107 60.4207 49.316C60.7007 49.5213 60.8407 49.8293 60.8407 50.24C60.8407 50.6507 60.7007 50.968 60.4207 51.192C60.1593 51.3973 59.7767 51.5 59.2727 51.5H56.9767V52.844L60.9807 52.452C61.5033 52.396 61.9047 52.4987 62.1847 52.76C62.4833 53.0213 62.6327 53.4133 62.6327 53.936V57.492C62.6327 58.444 62.1473 58.9947 61.1767 59.144L52.7487 60.376ZM94.4739 56.54C94.9779 56.54 95.3606 56.68 95.6219 56.96C95.9019 57.2213 96.0419 57.604 96.0419 58.108V60.796C96.0419 61.3 95.9019 61.692 95.6219 61.972C95.3606 62.2333 94.9779 62.364 94.4739 62.364H76.0779C75.5739 62.364 75.1819 62.2333 74.9019 61.972C74.6406 61.692 74.5099 61.3 74.5099 60.796V58.108C74.5099 57.604 74.6406 57.2213 74.9019 56.96C75.1819 56.68 75.5739 56.54 76.0779 56.54H78.2899V55.084C78.2899 54.58 78.4206 54.1973 78.6819 53.936C78.9619 53.656 79.3539 53.516 79.8579 53.516H83.4139C81.2673 53.2733 79.7086 52.592 78.7379 51.472C77.7859 50.3333 77.3099 48.8867 77.3099 47.132C77.3099 45.172 77.9073 43.6133 79.1019 42.456C80.3153 41.28 82.2846 40.692 85.0099 40.692C87.7539 40.692 89.7233 41.28 90.9179 42.456C92.1313 43.6133 92.7379 45.172 92.7379 47.132C92.7379 49.092 92.1313 50.66 90.9179 51.836C89.7233 53.012 87.7539 53.6 85.0099 53.6C84.6926 53.6 84.2353 53.5813 83.6379 53.544V56.54H86.8579V55.084C86.8579 54.58 86.9886 54.1973 87.2499 53.936C87.5299 53.656 87.9219 53.516 88.4259 53.516H90.6659C91.1699 53.516 91.5526 53.6467 91.8139 53.908C92.0939 54.1693 92.2339 54.5427 92.2339 55.028V56.54H94.4739ZM83.6659 47.132C83.6659 48.6067 84.1139 49.344 85.0099 49.344C85.4206 49.344 85.7473 49.176 85.9899 48.84C86.2513 48.4853 86.3819 47.916 86.3819 47.132C86.3819 46.3667 86.2513 45.816 85.9899 45.48C85.7473 45.1253 85.4206 44.948 85.0099 44.948C84.1139 44.948 83.6659 45.676 83.6659 47.132Z" fill="#131D0C"/>
<circle cx="6.60471" cy="6.60471" r="6.60471" transform="matrix(-1 0 0 1 75.4508 11.9713)" fill="#131D0C"/>
<path d="M47.7932 0C46.2578 9.63085e-05 44.8451 0.524252 43.724 1.40332C41.3276 3.28228 40.7538 6.70602 38.8404 9.07501C36.6853 11.7433 34.6911 12.1155 30.4434 12.1675C29.3467 12.1809 28.2504 11.9717 27.1536 11.9717C23.5059 11.9717 20.5491 14.9285 20.5491 18.5762C20.5491 22.2238 23.506 25.1806 27.1536 25.1807C29.749 25.1807 31.9942 23.6835 33.0738 21.5058C33.3019 21.0458 33.5007 20.5683 33.7633 20.1271C38.1157 12.813 41.7759 13.0087 47.3726 13.2087C47.3762 13.2088 47.3786 13.2049 47.3768 13.2018C47.3749 13.1986 47.3773 13.1946 47.381 13.1949C47.5173 13.2033 47.6547 13.209 47.7932 13.209H55.637C59.2845 13.2089 62.2415 10.2521 62.2415 6.60449C62.2413 2.95699 59.2845 0.000117757 55.637 0H47.7932Z" fill="#131D0C"/>
</svg>
