<svg width="44" height="21" viewBox="0 0 44 21" fill="none" xmlns="http://www.w3.org/2000/svg">
<circle cx="5.29317" cy="5.29317" r="5.29317" transform="matrix(-1 0 0 1 44 10.0938)" fill="#131D0C"/>
<path d="M21.835 0.5C20.9247 0.500048 20.0683 0.729939 19.3204 1.13479C16.658 2.5762 16.2037 6.27314 14.0764 8.4274C12.5493 9.97383 10.9523 10.2138 7.93528 10.2511C7.05472 10.262 6.17458 10.0938 5.29395 10.0938C2.37076 10.0938 0.00121689 12.4636 0.000976562 15.3867C0.000976562 18.3101 2.37061 20.6807 5.29395 20.6807C7.37654 20.6806 9.17772 19.4774 10.0416 17.7285C10.2212 17.3651 10.3785 16.9881 10.5856 16.6397C14.076 10.7688 17.0101 10.9254 21.4975 11.0857C21.5006 11.0858 21.5027 11.0824 21.501 11.0797C21.4994 11.077 21.5015 11.0735 21.5046 11.0737C21.6139 11.0805 21.724 11.0859 21.835 11.0859H28.1211C31.0443 11.0858 33.4141 8.71624 33.4141 5.79297C33.414 2.86979 31.0443 0.50011 28.1211 0.5H21.835Z" fill="#131D0C"/>
</svg>
